<svg width="180" height="180" viewBox="0 0 180 180" fill="none" xmlns="http://www.w3.org/2000/svg">
  <rect width="180" height="180" rx="40" fill="#0084ff"/>
  <path d="M45 36C45 23.8487 54.8487 14 67 14H133C145.151 14 155 23.8487 155 36V108C155 120.151 145.151 130 133 130H93L60 160V130C47.8487 130 38 120.151 38 108V36C38 23.8487 47.8487 14 60 14H67C54.8487 14 45 23.8487 45 36Z" fill="white" opacity="0.95"/>
  <circle cx="73" cy="63" r="8" fill="#0084ff"/>
  <circle cx="90" cy="63" r="8" fill="#0084ff"/>
  <circle cx="107" cy="63" r="8" fill="#0084ff"/>
  <path d="M55 85C53.3431 85 52 86.3431 52 88C52 89.6569 53.3431 91 55 91H125C126.657 91 128 89.6569 128 88C128 86.3431 126.657 85 125 85H55Z" fill="#0084ff"/>
</svg>

