<svg width="32" height="32" viewBox="0 0 32 32" fill="none" xmlns="http://www.w3.org/2000/svg">
  <rect width="32" height="32" rx="7" fill="#0084ff"/>
  <path d="M8 11C8 9.34315 9.34315 8 11 8H21C22.6569 8 24 9.34315 24 11V17C24 18.6569 22.6569 20 21 20H15L10 24V20C8.34315 20 7 18.6569 7 17V11C7 9.34315 8.34315 8 10 8H11C9.34315 8 8 9.34315 8 11Z" fill="white" opacity="0.95"/>
  <circle cx="13" cy="14" r="1.5" fill="#0084ff"/>
  <circle cx="16" cy="14" r="1.5" fill="#0084ff"/>
  <circle cx="19" cy="14" r="1.5" fill="#0084ff"/>
  <path d="M11 17C10.4477 17 10 17.4477 10 18C10 18.5523 10.4477 19 11 19H21C21.5523 19 22 18.5523 22 18C22 17.4477 21.5523 17 21 17H11Z" fill="#0084ff"/>
</svg>
